<?xml version="1.0" encoding="utf-8" standalone="no"?>
<!DOCTYPE svg PUBLIC "-//W3C//DTD SVG 1.1//EN"
  "http://www.w3.org/Graphics/SVG/1.1/DTD/svg11.dtd">
<svg xmlns:xlink="http://www.w3.org/1999/xlink" width="177.3pt" height="176.35625pt" viewBox="0 0 177.3 176.35625" xmlns="http://www.w3.org/2000/svg" version="1.1">
 <metadata>
  <rdf:RDF xmlns:dc="http://purl.org/dc/elements/1.1/" xmlns:cc="http://creativecommons.org/ns#" xmlns:rdf="http://www.w3.org/1999/02/22-rdf-syntax-ns#">
   <cc:Work>
    <dc:type rdf:resource="http://purl.org/dc/dcmitype/StillImage"/>
    <dc:date>2025-07-28T10:56:03.172300</dc:date>
    <dc:format>image/svg+xml</dc:format>
    <dc:creator>
     <cc:Agent>
      <dc:title>Matplotlib v3.10.1, https://matplotlib.org/</dc:title>
     </cc:Agent>
    </dc:creator>
   </cc:Work>
  </rdf:RDF>
 </metadata>
 <defs>
  <style type="text/css">*{stroke-linejoin: round; stroke-linecap: butt}</style>
 </defs>
 <g id="figure_1">
  <g id="patch_1">
   <path d="M 0 176.35625 
L 177.3 176.35625 
L 177.3 0 
L 0 0 
z
" style="fill: #ffffff"/>
  </g>
  <g id="axes_1">
   <g id="patch_2">
    <path d="M 30.6 145.8 
L 170.1 145.8 
L 170.1 7.2 
L 30.6 7.2 
z
" style="fill: #ffffff"/>
   </g>
   <g id="matplotlib.axis_1">
    <g id="text_1">
     <!-- $\it{r}$ -->
     <g transform="translate(96.15 164.996875) scale(0.2 -0.2)">
      <defs>
       <path id="DejaVuSans-Oblique-72" d="M 2853 2969 
Q 2766 3016 2653 3041 
Q 2541 3066 2413 3066 
Q 1953 3066 1609 2717 
Q 1266 2369 1153 1784 
L 800 0 
L 225 0 
L 909 3500 
L 1484 3500 
L 1375 2956 
Q 1603 3259 1920 3421 
Q 2238 3584 2597 3584 
Q 2691 3584 2781 3573 
Q 2872 3563 2963 3538 
L 2853 2969 
z
" transform="scale(0.015625)"/>
      </defs>
      <use xlink:href="#DejaVuSans-Oblique-72"/>
     </g>
    </g>
   </g>
   <g id="matplotlib.axis_2">
    <g id="text_2">
     <!-- $\it{g}$($\it{r}$) -->
     <g transform="translate(22.4 94.8) rotate(-90) scale(0.2 -0.2)">
      <defs>
       <path id="DejaVuSans-Oblique-67" d="M 3816 3500 
L 3219 434 
Q 3047 -456 2561 -893 
Q 2075 -1331 1253 -1331 
Q 950 -1331 690 -1286 
Q 431 -1241 206 -1147 
L 313 -588 
Q 525 -725 762 -790 
Q 1000 -856 1269 -856 
Q 1816 -856 2167 -557 
Q 2519 -259 2631 300 
L 2681 563 
Q 2441 288 2122 144 
Q 1803 0 1434 0 
Q 903 0 598 351 
Q 294 703 294 1319 
Q 294 1803 478 2267 
Q 663 2731 997 3091 
Q 1219 3328 1514 3456 
Q 1809 3584 2131 3584 
Q 2484 3584 2746 3420 
Q 3009 3256 3138 2956 
L 3238 3500 
L 3816 3500 
z
M 2950 2216 
Q 2950 2641 2750 2872 
Q 2550 3103 2181 3103 
Q 1953 3103 1747 3012 
Q 1541 2922 1394 2759 
Q 1156 2491 1023 2127 
Q 891 1763 891 1375 
Q 891 944 1092 712 
Q 1294 481 1672 481 
Q 2219 481 2584 976 
Q 2950 1472 2950 2216 
z
" transform="scale(0.015625)"/>
       <path id="DejaVuSans-28" d="M 1984 4856 
Q 1566 4138 1362 3434 
Q 1159 2731 1159 2009 
Q 1159 1288 1364 580 
Q 1569 -128 1984 -844 
L 1484 -844 
Q 1016 -109 783 600 
Q 550 1309 550 2009 
Q 550 2706 781 3412 
Q 1013 4119 1484 4856 
L 1984 4856 
z
" transform="scale(0.015625)"/>
       <path id="DejaVuSans-29" d="M 513 4856 
L 1013 4856 
Q 1481 4119 1714 3412 
Q 1947 2706 1947 2009 
Q 1947 1309 1714 600 
Q 1481 -109 1013 -844 
L 513 -844 
Q 928 -128 1133 580 
Q 1338 1288 1338 2009 
Q 1338 2731 1133 3434 
Q 928 4138 513 4856 
z
" transform="scale(0.015625)"/>
      </defs>
      <use xlink:href="#DejaVuSans-Oblique-67" transform="translate(0 0.125)"/>
      <use xlink:href="#DejaVuSans-28" transform="translate(63.476562 0.125)"/>
      <use xlink:href="#DejaVuSans-Oblique-72" transform="translate(102.490234 0.125)"/>
      <use xlink:href="#DejaVuSans-29" transform="translate(143.603516 0.125)"/>
     </g>
    </g>
   </g>
   <g id="line2d_1">
    <path d="M 30.861563 139.5 
L 65.910938 139.399551 
L 66.434062 139.207387 
L 66.957188 138.64724 
L 67.480312 135.080054 
L 68.003438 127.145613 
L 68.526562 114.510344 
L 70.619062 38.616083 
L 71.142188 27.105808 
L 71.665312 18.142074 
L 72.188437 13.5 
L 72.711562 21.342886 
L 73.234688 27.463081 
L 73.757812 36.48349 
L 74.280937 39.461285 
L 74.804062 55.275555 
L 75.850313 64.202201 
L 76.373437 72.847673 
L 76.896562 79.020183 
L 77.419687 79.849898 
L 77.942813 88.537052 
L 78.465937 93.744824 
L 79.512187 96.15248 
L 80.558437 103.820384 
L 81.081562 103.818805 
L 81.604687 107.243069 
L 82.650937 106.446496 
L 83.174062 109.004157 
L 83.697187 108.224926 
L 84.220313 111.707297 
L 84.743437 110.532775 
L 85.266562 111.503622 
L 85.789687 113.1832 
L 86.312813 110.164514 
L 86.835938 111.024582 
L 87.359062 112.713378 
L 87.882187 113.505759 
L 88.405313 113.524316 
L 88.928438 113.362323 
L 89.451562 110.498014 
L 89.974687 112.605552 
L 90.497812 112.654352 
L 91.020938 111.57334 
L 91.544062 111.511163 
L 92.067188 109.963391 
L 92.590312 111.437578 
L 93.636562 111.006019 
L 94.159687 111.256101 
L 94.682813 110.678373 
L 95.205938 108.022482 
L 95.729062 108.64422 
L 96.252187 108.233174 
L 96.775313 108.325143 
L 97.298438 107.348237 
L 97.821562 107.070616 
L 98.344687 107.0237 
L 98.867812 105.611432 
L 99.390938 106.17782 
L 99.914062 105.58399 
L 100.437187 103.59922 
L 100.960313 104.004575 
L 101.483438 104.252353 
L 102.006563 102.72812 
L 102.529687 100.404525 
L 103.052813 100.108101 
L 103.575938 101.37639 
L 104.622187 97.943356 
L 105.145313 97.375082 
L 105.668438 95.626441 
L 106.191563 95.530171 
L 106.714687 94.402975 
L 107.237813 94.355463 
L 107.760938 93.32466 
L 108.284063 90.499251 
L 108.807187 89.944411 
L 109.330313 88.155805 
L 109.853438 87.854296 
L 110.376563 86.915652 
L 110.899687 88.628039 
L 111.422812 87.673863 
L 111.945938 88.546496 
L 112.469063 86.243088 
L 112.992188 87.618321 
L 113.515312 86.339801 
L 114.561563 89.184354 
L 115.084688 87.892851 
L 115.607812 90.363271 
L 116.654063 91.905997 
L 117.700312 96.773652 
L 118.223438 97.951121 
L 118.746563 100.151519 
L 119.269688 101.729549 
L 119.792812 101.132209 
L 120.315938 104.036947 
L 120.839063 103.800922 
L 121.362188 104.530538 
L 122.408437 106.496924 
L 122.931563 107.178361 
L 123.454688 106.074337 
L 123.977812 108.530624 
L 124.500937 106.43152 
L 125.024063 106.600246 
L 125.547188 106.920098 
L 126.070312 108.155616 
L 126.593437 107.041953 
L 127.116563 108.58947 
L 127.639688 107.605075 
L 128.162813 108.156728 
L 129.209063 107.027898 
L 129.732188 106.94912 
L 130.255313 106.735053 
L 130.778437 105.865769 
L 131.301563 106.868905 
L 131.824688 106.850821 
L 132.347813 106.617066 
L 132.870937 106.665209 
L 133.394063 105.516905 
L 133.917188 106.317771 
L 134.440313 104.97862 
L 134.963437 106.623262 
L 135.486562 105.037717 
L 136.009688 105.029485 
L 136.532813 106.016442 
L 137.055937 104.753256 
L 137.579062 104.479385 
L 138.102188 104.494258 
L 138.625313 103.726978 
L 139.148438 104.953218 
L 139.671562 103.051858 
L 140.194688 103.21128 
L 140.717813 102.450049 
L 141.240938 102.011748 
L 141.764062 102.191445 
L 142.287188 100.923565 
L 142.810313 101.202835 
L 143.333438 100.39452 
L 143.856562 100.462006 
L 144.379688 100.200963 
L 144.902813 98.805536 
L 145.425938 99.279975 
L 146.472188 97.372371 
L 146.995313 95.697835 
L 147.518438 95.273477 
L 148.041562 95.67568 
L 148.564687 96.792545 
L 150.134062 94.46167 
L 150.657187 96.139352 
L 151.180313 94.628241 
L 151.703438 94.801563 
L 152.226562 95.303773 
L 152.749687 95.379319 
L 153.272813 95.205501 
L 153.795938 95.613885 
L 154.319063 93.34939 
L 154.842187 94.508035 
L 155.365313 96.493749 
L 155.888437 95.224412 
L 156.411563 96.849978 
L 157.457813 95.706052 
L 157.980938 96.713416 
L 158.504063 96.656923 
L 159.550312 98.539425 
L 160.073437 97.89845 
L 160.596563 99.655611 
L 161.119687 99.614105 
L 161.642812 100.989499 
L 162.165937 100.752454 
L 162.689063 101.661757 
L 163.212187 102.016671 
L 163.735312 101.505111 
L 164.258437 101.381285 
L 164.781563 102.526611 
L 165.827812 103.199257 
L 166.350937 104.219312 
L 166.874063 102.931697 
L 167.920312 103.201197 
L 168.443437 102.111698 
L 168.966562 103.316292 
L 169.489688 103.542899 
L 170.012812 103.258042 
L 171.059062 103.167445 
L 171.582187 103.808361 
L 172.105312 103.095989 
L 172.628437 103.804503 
L 173.151562 102.050541 
L 173.674687 102.458501 
L 174.197812 103.402109 
L 175.767187 102.032817 
L 176.290312 102.696751 
L 176.813437 103.065086 
L 178.3 102.168744 
L 178.3 102.168744 
" clip-path="url(#p57a1c513d5)" style="fill: none; stroke: #1f77b4; stroke-width: 2; stroke-linecap: square"/>
   </g>
   <g id="patch_3">
    <path d="M 30.6 145.8 
L 30.6 7.2 
" style="fill: none; stroke: #000000; stroke-width: 0.8; stroke-linejoin: miter; stroke-linecap: square"/>
   </g>
   <g id="patch_4">
    <path d="M 170.1 145.8 
L 170.1 7.2 
" style="fill: none; stroke: #000000; stroke-width: 0.8; stroke-linejoin: miter; stroke-linecap: square"/>
   </g>
   <g id="patch_5">
    <path d="M 30.6 145.8 
L 170.1 145.8 
" style="fill: none; stroke: #000000; stroke-width: 0.8; stroke-linejoin: miter; stroke-linecap: square"/>
   </g>
   <g id="patch_6">
    <path d="M 30.6 7.2 
L 170.1 7.2 
" style="fill: none; stroke: #000000; stroke-width: 0.8; stroke-linejoin: miter; stroke-linecap: square"/>
   </g>
  </g>
 </g>
 <defs>
  <clipPath id="p57a1c513d5">
   <rect x="30.6" y="7.2" width="139.5" height="138.6"/>
  </clipPath>
 </defs>
</svg>
