<?xml version="1.0" encoding="utf-8" standalone="no"?>
<!DOCTYPE svg PUBLIC "-//W3C//DTD SVG 1.1//EN"
  "http://www.w3.org/Graphics/SVG/1.1/DTD/svg11.dtd">
<svg xmlns:xlink="http://www.w3.org/1999/xlink" width="177.25625pt" height="176.35625pt" viewBox="0 0 177.25625 176.35625" xmlns="http://www.w3.org/2000/svg" version="1.1">
 <metadata>
  <rdf:RDF xmlns:dc="http://purl.org/dc/elements/1.1/" xmlns:cc="http://creativecommons.org/ns#" xmlns:rdf="http://www.w3.org/1999/02/22-rdf-syntax-ns#">
   <cc:Work>
    <dc:type rdf:resource="http://purl.org/dc/dcmitype/StillImage"/>
    <dc:date>2025-07-28T10:55:51.374621</dc:date>
    <dc:format>image/svg+xml</dc:format>
    <dc:creator>
     <cc:Agent>
      <dc:title>Matplotlib v3.10.1, https://matplotlib.org/</dc:title>
     </cc:Agent>
    </dc:creator>
   </cc:Work>
  </rdf:RDF>
 </metadata>
 <defs>
  <style type="text/css">*{stroke-linejoin: round; stroke-linecap: butt}</style>
 </defs>
 <g id="figure_1">
  <g id="patch_1">
   <path d="M 0 176.35625 
L 177.25625 176.35625 
L 177.25625 0 
L 0 0 
z
" style="fill: #ffffff"/>
  </g>
  <g id="axes_1">
   <g id="patch_2">
    <path d="M 30.55625 145.8 
L 170.05625 145.8 
L 170.05625 7.2 
L 30.55625 7.2 
z
" style="fill: #ffffff"/>
   </g>
   <g id="matplotlib.axis_1">
    <g id="text_1">
     <!-- $\it{Q}$ -->
     <g transform="translate(92.40625 164.996875) scale(0.2 -0.2)">
      <defs>
       <path id="DejaVuSans-Oblique-51" d="M 2309 -84 
Q 2275 -88 2237 -89 
Q 2200 -91 2125 -91 
Q 1250 -91 756 411 
Q 263 913 263 1797 
Q 263 2319 452 2844 
Q 641 3369 978 3788 
Q 1369 4269 1858 4509 
Q 2347 4750 2938 4750 
Q 3794 4750 4287 4245 
Q 4781 3741 4781 2869 
Q 4781 1928 4265 1147 
Q 3750 366 2919 44 
L 3553 -825 
L 2847 -825 
L 2309 -84 
z
M 2919 4238 
Q 2400 4238 2003 3986 
Q 1606 3734 1313 3219 
Q 1125 2891 1026 2522 
Q 928 2153 928 1778 
Q 928 1128 1239 775 
Q 1550 422 2119 422 
Q 2631 422 3032 676 
Q 3434 931 3719 1434 
Q 3909 1772 4009 2142 
Q 4109 2513 4109 2881 
Q 4109 3528 3796 3883 
Q 3484 4238 2919 4238 
z
" transform="scale(0.015625)"/>
      </defs>
      <use xlink:href="#DejaVuSans-Oblique-51" transform="translate(0 0.78125)"/>
     </g>
    </g>
   </g>
   <g id="matplotlib.axis_2">
    <g id="text_2">
     <!-- $\it{S}$($\it{Q}$) -->
     <g transform="translate(22.396875 98.6) rotate(-90) scale(0.2 -0.2)">
      <defs>
       <path id="DejaVuSans-Oblique-53" d="M 3859 4513 
L 3738 3897 
Q 3422 4066 3111 4152 
Q 2800 4238 2509 4238 
Q 1944 4238 1609 3991 
Q 1275 3744 1275 3334 
Q 1275 3109 1398 2989 
Q 1522 2869 2034 2731 
L 2413 2638 
Q 3053 2472 3303 2217 
Q 3553 1963 3553 1503 
Q 3553 797 2998 353 
Q 2444 -91 1538 -91 
Q 1166 -91 791 -17 
Q 416 56 38 206 
L 166 856 
Q 513 641 861 531 
Q 1209 422 1556 422 
Q 2147 422 2503 684 
Q 2859 947 2859 1369 
Q 2859 1650 2717 1795 
Q 2575 1941 2106 2059 
L 1728 2156 
Q 1081 2325 845 2545 
Q 609 2766 609 3163 
Q 609 3859 1145 4304 
Q 1681 4750 2541 4750 
Q 2875 4750 3203 4690 
Q 3531 4631 3859 4513 
z
" transform="scale(0.015625)"/>
       <path id="DejaVuSans-28" d="M 1984 4856 
Q 1566 4138 1362 3434 
Q 1159 2731 1159 2009 
Q 1159 1288 1364 580 
Q 1569 -128 1984 -844 
L 1484 -844 
Q 1016 -109 783 600 
Q 550 1309 550 2009 
Q 550 2706 781 3412 
Q 1013 4119 1484 4856 
L 1984 4856 
z
" transform="scale(0.015625)"/>
       <path id="DejaVuSans-29" d="M 513 4856 
L 1013 4856 
Q 1481 4119 1714 3412 
Q 1947 2706 1947 2009 
Q 1947 1309 1714 600 
Q 1481 -109 1013 -844 
L 513 -844 
Q 928 -128 1133 580 
Q 1338 1288 1338 2009 
Q 1338 2731 1133 3434 
Q 928 4138 513 4856 
z
" transform="scale(0.015625)"/>
      </defs>
      <use xlink:href="#DejaVuSans-Oblique-53" transform="translate(0 0.125)"/>
      <use xlink:href="#DejaVuSans-28" transform="translate(63.476562 0.125)"/>
      <use xlink:href="#DejaVuSans-Oblique-51" transform="translate(102.490234 0.125)"/>
      <use xlink:href="#DejaVuSans-29" transform="translate(181.201172 0.125)"/>
     </g>
    </g>
   </g>
   <g id="line2d_1">
    <path d="M 35.20625 139.189654 
L 35.75605 138.637534 
L 36.305849 139.603397 
L 36.855649 140.93699 
L 37.405448 141.441827 
L 37.955248 140.578807 
L 39.604647 135.064517 
L 40.704246 133.373148 
L 41.254046 131.62694 
L 41.803845 128.172959 
L 42.353645 122.824003 
L 44.003044 101.179525 
L 45.102643 87.880738 
L 46.202242 77.466782 
L 46.752042 74.27138 
L 47.301841 73.182963 
L 47.851641 74.475293 
L 48.40144 77.889764 
L 51.700238 105.81452 
L 52.250038 109.412328 
L 52.799837 111.876776 
L 53.349637 112.173507 
L 53.899436 109.421829 
L 54.449236 103.404075 
L 56.648434 69.7019 
L 57.198234 65.989695 
L 57.748034 65.006167 
L 58.297833 65.918152 
L 60.497032 72.78624 
L 63.24603 80.232691 
L 64.345629 82.466066 
L 64.895428 83.866623 
L 67.094627 90.497595 
L 67.644426 90.977433 
L 68.194226 90.787623 
L 70.943224 87.813593 
L 71.493024 86.692382 
L 72.042823 85.064983 
L 74.791821 75.285679 
L 75.341621 72.387157 
L 75.89142 68.182991 
L 76.99102 55.978525 
L 78.090619 43.437171 
L 78.640418 39.379568 
L 79.190218 37.513097 
L 79.740018 37.768311 
L 80.289817 39.703838 
L 80.839617 42.74564 
L 81.939216 50.429201 
L 85.238014 76.34098 
L 86.337613 81.961525 
L 87.437212 85.981949 
L 89.086611 91.173087 
L 90.18621 93.844849 
L 91.285809 95.576816 
L 92.385408 96.644648 
L 92.935208 96.996512 
L 93.485008 97.212384 
L 94.034807 97.260108 
L 94.584607 97.103922 
L 95.134406 96.709472 
L 95.684206 96.042864 
L 96.234006 95.068282 
L 96.783805 93.748824 
L 97.333605 92.052223 
L 98.433204 87.473654 
L 99.532803 81.470201 
L 102.281801 65.20566 
L 102.831601 62.969363 
L 103.3814 61.430238 
L 103.9312 60.649697 
L 104.480999 60.603249 
L 105.030799 61.182025 
L 105.580599 62.216273 
L 108.879396 69.862656 
L 110.528795 72.725921 
L 111.628394 74.23 
L 113.277793 76.054269 
L 114.377392 76.88561 
L 114.927192 77.109309 
L 116.026791 77.232285 
L 118.225989 77.165059 
L 118.775789 77.036767 
L 119.325589 76.788432 
L 120.425188 75.957134 
L 122.624386 74.090053 
L 123.723985 73.514178 
L 124.273785 73.401398 
L 124.823585 73.448366 
L 125.373384 73.674325 
L 125.923184 74.07988 
L 127.022783 75.370758 
L 128.122382 77.195266 
L 130.87138 82.48695 
L 131.970979 84.004764 
L 133.070579 85.166841 
L 134.170178 85.928219 
L 134.719977 86.069694 
L 135.269777 86.025224 
L 135.819577 85.81207 
L 136.919176 85.010918 
L 138.018775 83.737781 
L 138.568575 82.838807 
L 139.668174 80.402453 
L 143.516771 70.329823 
L 144.61637 68.099443 
L 145.715969 66.477239 
L 146.265769 65.941951 
L 146.815569 65.605677 
L 147.365368 65.483119 
L 147.915168 65.59085 
L 148.464967 65.936847 
L 149.014767 66.508374 
L 150.114366 68.161471 
L 151.763765 71.227673 
L 155.062563 77.675556 
L 156.162162 79.077016 
L 157.811561 80.583017 
L 158.91116 81.343402 
L 160.010759 81.783072 
L 161.110358 81.813456 
L 162.209957 81.464874 
L 163.859356 80.55479 
L 165.508755 79.431076 
L 168.257753 77.206234 
L 169.357352 76.687585 
L 170.456951 76.361781 
L 171.556551 76.237158 
L 172.65615 76.413932 
L 175.405148 77.171323 
L 177.604346 77.542965 
L 178.25625 77.48665 
L 178.25625 77.48665 
" clip-path="url(#p9533b59702)" style="fill: none; stroke: #1f77b4; stroke-width: 2; stroke-linecap: square"/>
   </g>
   <g id="patch_3">
    <path d="M 30.55625 145.8 
L 30.55625 7.2 
" style="fill: none; stroke: #000000; stroke-width: 0.8; stroke-linejoin: miter; stroke-linecap: square"/>
   </g>
   <g id="patch_4">
    <path d="M 170.05625 145.8 
L 170.05625 7.2 
" style="fill: none; stroke: #000000; stroke-width: 0.8; stroke-linejoin: miter; stroke-linecap: square"/>
   </g>
   <g id="patch_5">
    <path d="M 30.55625 145.8 
L 170.05625 145.8 
" style="fill: none; stroke: #000000; stroke-width: 0.8; stroke-linejoin: miter; stroke-linecap: square"/>
   </g>
   <g id="patch_6">
    <path d="M 30.55625 7.2 
L 170.05625 7.2 
" style="fill: none; stroke: #000000; stroke-width: 0.8; stroke-linejoin: miter; stroke-linecap: square"/>
   </g>
  </g>
 </g>
 <defs>
  <clipPath id="p9533b59702">
   <rect x="30.55625" y="7.2" width="139.5" height="138.6"/>
  </clipPath>
 </defs>
</svg>
